<?xml version="1.0" encoding="UTF-8"?> <svg xmlns="http://www.w3.org/2000/svg" width="1436" height="582" viewBox="0 0 1436 582" fill="none"><circle cx="973" cy="164" r="164" fill="#FFD440"></circle><path d="M-203.585 580.45C-253.214 581.859 -95.6232 258.738 11.9258 241.42C119.475 224.101 116.971 370.95 273.901 370.964C430.842 370.978 411.874 293.622 530.927 299.153C649.98 304.684 780.052 426.302 818.059 472.29C856.066 518.271 928.277 507.3 962.127 481.992C995.976 456.683 1070.93 369.745 1149.6 363.192C1228.27 356.64 1388 582 1388 582L-203.597 580.464L-203.585 580.45Z" fill="#496D18"></path><path d="M1434.57 577.631L1429.57 577.46L1429.71 577.652L-152.601 579.495C-151.438 577.553 -149.84 574.902 -147.849 571.632C-143.335 564.225 -136.798 553.65 -128.708 540.982C-112.524 515.643 -90.1353 481.953 -65.3004 448.52C-40.4521 415.069 -13.216 381.959 12.659 357.729C25.5984 345.613 38.1257 335.785 49.7803 329.242C61.4674 322.681 72.0314 319.56 81.1354 320.475C119.57 324.338 157.44 351.993 190.205 382.989C206.533 398.436 221.48 414.599 234.492 428.848C235.814 430.296 237.117 431.725 238.401 433.132C249.699 445.523 259.469 456.238 267.171 463.187C284.558 478.873 311.664 490.038 339.299 490.234C367.034 490.43 395.427 479.563 414.967 451.037L412.905 449.624L414.967 451.037C419.831 443.935 424.181 435.53 428.497 426.516C430.301 422.75 432.084 418.908 433.899 415C436.474 409.454 439.111 403.774 441.956 397.984C451.593 378.37 463.149 358.501 480.482 342.869C514.882 311.845 573.011 296.722 687.114 337.005C744.709 357.339 782.576 354.679 809.65 338.373C836.564 322.164 852.167 292.808 866.095 261.457C868.725 255.537 871.296 249.546 873.871 243.544C885.045 217.503 896.3 191.273 912.802 169.892C932.937 143.802 960.828 125.061 1006.01 123.579C1051.16 122.099 1089.03 141.491 1121.75 170.391C1154.5 199.323 1181.91 237.632 1206.09 273.656C1210.2 279.787 1214.23 285.858 1218.17 291.804C1225.78 303.281 1233.09 314.292 1240.12 324.364C1250.8 339.657 1260.99 352.968 1270.93 362.685C1280.81 372.358 1290.77 378.795 1301.01 379.72C1311.44 380.663 1321.46 375.845 1331.28 364.652C1340.48 354.172 1349.38 349.98 1357.76 350.033C1366.2 350.086 1374.74 354.454 1383.14 362.437C1399.99 378.444 1415.24 407.985 1426.69 440.55C1438.12 473.04 1445.62 508.123 1447.19 534.886C1447.98 548.306 1447.26 559.409 1444.94 567.005C1443.78 570.799 1442.28 573.523 1440.55 575.249C1438.89 576.905 1436.95 577.713 1434.57 577.631Z" stroke="#FFD441" stroke-width="5"></path><path d="M1434.59 580.45C1484.21 581.859 1405.5 328.71 1329.5 400.5C1253.5 472.29 1190 195 1006 200C822 205 917 444 688 377C459 310 450.948 426.302 412.941 472.29C374.934 518.271 302.723 507.3 268.873 481.992C235.024 456.683 160.072 369.745 81.4006 363.193C2.72901 356.64 -157 582 -157 582L1434.6 580.464L1434.59 580.45Z" fill="#95C11F"></path><g clip-path="url(#clip0_3355_14833)"><path d="M1042 169.211C1041.72 169.211 1041.46 169.088 1041.28 168.842C1041 168.437 1041.1 167.891 1041.49 167.609L1058.39 155.745C1061.1 153.844 1062.65 150.992 1062.75 147.7L1064.81 134.04L1071.5 128.971C1071.89 128.671 1072.44 128.759 1072.74 129.147C1073.03 129.534 1072.95 130.08 1072.56 130.379L1066.43 135.026L1064.5 147.859C1064.39 151.555 1062.53 154.988 1059.39 157.171L1042.49 169.035C1042.34 169.141 1042.16 169.194 1041.98 169.194L1042 169.211Z" fill="#613182"></path><path d="M980.812 233.163C980.812 233.163 980.742 233.163 980.707 233.163C980.231 233.11 979.879 232.67 979.932 232.178L981.551 218.746L982.872 221.035C983.013 221.299 986.586 227.319 992.677 225.805C997.764 224.538 1000.12 207.111 1000.62 200.51C1000.65 200.034 1001.07 199.665 1001.57 199.7C1002.06 199.735 1002.41 200.158 1002.38 200.65C1002.18 203.22 1000.33 225.735 993.117 227.53C988.153 228.763 984.579 225.84 982.748 223.763L981.71 232.406C981.657 232.846 981.27 233.181 980.83 233.181L980.812 233.163Z" fill="#613182"></path><path d="M1005.1 243.901C1004.7 243.901 1004.35 243.637 1004.24 243.232L1001.02 230.083L1003.06 231.755C1003.29 231.949 1008.77 236.332 1013.91 232.776C1018.25 229.784 1015.4 210.948 1013.92 203.96C1013.82 203.485 1014.14 203.009 1014.61 202.921C1015.09 202.816 1015.56 203.132 1015.65 203.608C1016.21 206.301 1020.98 230.03 1014.91 234.237C1010.7 237.142 1006.32 235.663 1003.87 234.36L1005.95 242.827C1006.07 243.303 1005.77 243.778 1005.3 243.884C1005.23 243.884 1005.16 243.901 1005.09 243.901H1005.1Z" fill="#613182"></path><path d="M985.601 146.043L977.643 190.274C976.889 194.465 979.675 198.473 983.866 199.227L1028.1 207.186C1032.29 207.94 1036.3 205.154 1037.05 200.963L1045.01 156.732C1045.76 152.541 1042.98 148.533 1038.79 147.779L994.555 139.82C990.364 139.066 986.355 141.852 985.601 146.043Z" fill="#613182"></path><path d="M1029.31 202.622C1028.9 202.622 1028.5 202.587 1028.09 202.516L994.56 196.478C990.899 195.827 988.47 192.306 989.121 188.662L995.159 155.129C995.476 153.351 996.461 151.819 997.94 150.798C999.419 149.777 1001.2 149.39 1002.97 149.707L1036.51 155.745C1038.29 156.062 1039.82 157.047 1040.84 158.526C1041.86 160.005 1042.25 161.783 1041.93 163.56L1035.89 197.094C1035.58 198.872 1034.59 200.404 1033.11 201.425C1031.97 202.217 1030.65 202.622 1029.29 202.622H1029.31ZM1001.78 151.344C1000.77 151.344 999.788 151.643 998.943 152.242C997.852 152.999 997.13 154.143 996.884 155.445L990.846 188.979C990.353 191.673 992.166 194.26 994.86 194.753L1028.39 200.791C1029.7 201.037 1031.02 200.738 1032.11 199.981C1033.2 199.224 1033.92 198.08 1034.17 196.778L1040.21 163.244C1040.7 160.55 1038.88 157.963 1036.19 157.47L1002.66 151.432C1002.36 151.379 1002.06 151.344 1001.76 151.344H1001.78Z" fill="#6553A3"></path><path d="M1016.99 132.526C1017.27 151.678 987.184 151.678 987.484 132.526C987.202 113.374 1017.29 113.374 1016.99 132.526Z" fill="white"></path><path d="M1002.22 147.77C999.19 147.77 996.18 147.014 993.592 145.517C988.98 142.824 986.498 138.212 986.586 132.526C986.498 126.858 988.998 122.246 993.592 119.553C998.75 116.543 1005.69 116.543 1010.84 119.553C1015.44 122.246 1017.94 126.858 1017.85 132.544C1017.92 138.23 1015.44 142.842 1010.84 145.535C1008.27 147.049 1005.25 147.788 1002.22 147.788V147.77ZM1002.22 119.042C999.507 119.042 996.796 119.711 994.49 121.067C990.459 123.425 988.276 127.492 988.347 132.509C988.276 137.561 990.459 141.627 994.49 143.986C999.12 146.697 1005.33 146.697 1009.96 143.986C1013.99 141.627 1016.18 137.561 1016.11 132.526C1016.18 127.474 1013.99 123.408 1009.96 121.049C1007.66 119.694 1004.95 119.025 1002.24 119.025L1002.22 119.042Z" fill="#6553A3"></path><path d="M1047.42 132.526C1047.7 151.678 1017.62 151.678 1017.92 132.526C1017.64 113.374 1047.72 113.374 1047.42 132.526Z" fill="white"></path><path d="M1032.67 147.77C1029.64 147.77 1026.63 147.014 1024.05 145.517C1019.43 142.824 1016.95 138.212 1017.04 132.526C1016.95 126.858 1019.45 122.246 1024.05 119.553C1029.2 116.543 1036.14 116.543 1041.3 119.553C1045.89 122.246 1048.39 126.858 1048.3 132.544C1048.37 138.23 1045.89 142.842 1041.3 145.535C1038.73 147.031 1035.7 147.788 1032.67 147.788V147.77ZM1032.67 119.042C1029.96 119.042 1027.25 119.711 1024.94 121.067C1020.91 123.425 1018.73 127.492 1018.8 132.509C1018.73 137.561 1020.91 141.627 1024.94 143.986C1029.57 146.679 1035.79 146.679 1040.42 143.986C1044.45 141.627 1046.63 137.561 1046.56 132.526C1046.63 127.474 1044.45 123.408 1040.42 121.049C1038.11 119.694 1035.4 119.025 1032.69 119.025L1032.67 119.042Z" fill="#6553A3"></path><path d="M1006.35 133.565C1005.97 133.565 1005.62 133.319 1005.51 132.914C1004.12 127.914 1002.78 127.492 1002.39 127.474C1001.09 127.422 999.19 130.731 998.38 132.984C998.222 133.442 997.711 133.671 997.254 133.512C996.796 133.354 996.567 132.843 996.726 132.386C997.13 131.259 999.348 125.644 1002.46 125.714C1004.44 125.784 1005.93 127.932 1007.2 132.438C1007.32 132.914 1007.06 133.389 1006.58 133.53C1006.51 133.547 1006.42 133.565 1006.34 133.565H1006.35Z" fill="#613182"></path><path d="M1029.24 133.565C1029.15 133.565 1029.04 133.565 1028.96 133.512C1028.5 133.354 1028.25 132.861 1028.39 132.403C1029.85 128.038 1031.51 125.908 1033.48 125.908C1036.56 125.908 1038.52 131.329 1038.87 132.403C1039.03 132.861 1038.76 133.354 1038.3 133.512C1037.85 133.671 1037.35 133.407 1037.19 132.949C1036.49 130.819 1034.82 127.65 1033.48 127.65C1032.99 127.65 1031.67 128.161 1030.07 132.949C1029.94 133.319 1029.59 133.547 1029.24 133.547V133.565Z" fill="#613182"></path><path d="M1009.07 159.882L1014.28 160.815L1010.03 184.438L1024.68 187.061L1023.89 191.462L1004.03 187.906L1009.07 159.882Z" fill="white"></path><path d="M988.699 168.983C988.417 168.983 988.135 168.842 987.959 168.595L975.69 150.077C973.859 147.313 973.507 144.004 974.722 141.011L979.879 128.302L976.535 121.419C976.324 120.979 976.5 120.451 976.94 120.24C977.38 120.028 977.908 120.205 978.119 120.645L981.816 128.232L976.359 141.663C975.373 144.11 975.655 146.82 977.169 149.091L989.455 167.61C989.72 168.014 989.614 168.56 989.209 168.824C989.068 168.93 988.892 168.965 988.716 168.965L988.699 168.983Z" fill="#613182"></path><path d="M1029.64 107.019L1025.47 108.48L1023.87 112.793L1022.36 108.568L1018.1 107.019L1022.41 105.418L1023.87 101.246L1025.42 105.506L1029.64 107.019Z" fill="#613182"></path><path d="M1045.89 99.2918L1043.51 100.119L1042.6 102.584L1041.75 100.172L1039.32 99.2918L1041.77 98.3764L1042.6 96L1043.5 98.4292L1045.89 99.2918Z" fill="#613182"></path><path d="M1059.08 125.925L1056.08 117.528L1047.65 114.448L1056.15 111.297L1059.09 102.936L1062.19 111.438L1070.66 114.466L1062.26 117.405L1059.09 125.925H1059.08ZM1052.74 114.448L1057.46 116.173L1059.11 120.785L1060.89 116.015L1065.36 114.448L1060.8 112.828L1059.11 108.181L1057.53 112.688L1052.74 114.466V114.448Z" fill="#613182"></path><path d="M995.44 150.305L1032.9 151.344C1033.41 151.344 1033.76 151.995 1033.53 152.506C1032.32 155.199 1022.64 161.078 1017.22 161.677C1007.45 162.751 1001.64 155.569 995.159 151.784C994.507 151.397 994.701 150.288 995.423 150.305H995.44Z" fill="#FFD441"></path></g><defs><clipPath id="clip0_3355_14833"><rect width="98.9117" height="147.901" fill="white" transform="translate(974 96)"></rect></clipPath></defs></svg> 