<?xml version="1.0" encoding="UTF-8"?> <svg xmlns="http://www.w3.org/2000/svg" width="665" height="276" viewBox="0 0 665 276" fill="none"><path fill-rule="evenodd" clip-rule="evenodd" d="M640.96 0.479721H26.66C11.98 0.479721 0 12.4697 0 27.1397V200.3C0 214.98 11.99 226.96 26.66 226.96H55.13C61.59 226.96 67.33 229.13 71.61 234.14L105.3 267.83C115.58 278.11 132.22 278.11 142.51 267.83L176.2 234.14C180.49 229.85 186.22 226.96 192.68 226.96H637.95C652.63 226.96 664.56 214.97 664.56 200.35V24.1397C663.84 11.2197 653.81 0.469727 640.95 0.469727L640.96 0.479721Z" fill="#612A7A"></path><path d="M73.1602 54.9395H92.2302C93.8802 54.9395 95.2302 56.2795 95.2302 57.9395V138.649C95.2302 140.299 96.5702 141.649 98.2302 141.649H145.92C147.57 141.649 148.92 142.989 148.92 144.649V158.709C148.92 160.359 147.58 161.709 145.92 161.709H73.1602C71.5102 161.709 70.1602 160.369 70.1602 158.709V57.9494C70.1602 56.2994 71.5002 54.9494 73.1602 54.9494V54.9395Z" fill="white"></path><path d="M181.16 157.41C174.08 153.84 169.07 148.88 164.83 142.53C164.73 142.43 164.67 142.27 164.62 142.17C161.11 135.76 158.99 128.63 158.99 120.16C158.99 111.69 161.16 104.4 164.73 97.9402C168.3 91.4802 174.03 86.4701 181.21 82.9001C188.39 79.3301 195.52 77.1602 204.82 77.1602C213.4 77.1602 221.3 79.3301 227.71 82.9001C234.89 86.4701 239.91 91.4802 243.47 97.9402C247.04 104.4 249.21 111.58 249.21 120.16C249.21 128.74 247.04 135.92 243.47 142.38C239.9 148.84 234.17 153.85 227.71 157.42C220.53 160.99 213.4 163.16 204.82 163.16C195.52 163.16 187.61 160.99 181.21 157.42H181.16V157.41ZM219.14 137.36C222.71 133.07 224.88 127.34 224.88 120.88C224.88 114.42 222.71 108.68 219.14 104.4C215.57 100.11 209.84 97.9402 204.1 97.9402C198.36 97.9402 192.63 100.11 189.06 104.4C184.77 108.69 183.32 113.7 183.32 120.88C183.32 128.06 185.49 133.08 189.06 137.36C193.35 141.65 198.36 143.82 204.1 143.82C209.84 143.82 215.57 141.65 219.14 137.36Z" fill="white"></path><path d="M350.03 79.3297C351.68 79.3297 353.03 80.6697 353.03 82.3297V148.11C353.03 163.15 349.46 174.62 341.56 181.8C333.71 188.98 322.23 192.55 307.2 192.55C299.35 192.55 291.44 191.83 284.31 189.71C278.21 187.9 273.15 185.52 268.65 182.63C267.36 181.8 266.94 180.05 267.67 178.7L274.03 166.92C274.91 165.32 276.92 164.9 278.42 165.89C281.31 167.8 284.62 169.4 288.34 170.95C288.5 171 288.65 171.05 288.75 171.11C293.71 172.51 299.34 173.9 304.3 173.9C312.88 173.9 318.61 171.73 322.9 168.16C326.47 164.59 328.64 158.86 328.64 150.95V147.38C322.18 154.56 313.6 157.4 302.85 157.4C295 157.4 288.54 155.95 282.08 152.39C275.62 148.82 270.61 144.48 267.04 138.08C263.47 132.34 261.3 125.16 261.3 117.31C261.3 109.46 263.47 102.27 267.04 96.5397C270.61 90.7997 275.62 85.7897 282.08 82.2297C288.54 78.6597 294.95 77.2197 302.85 77.2197C315.05 77.2197 323.62 80.7897 330.08 88.6897V82.3897C330.08 80.7397 331.42 79.3897 333.08 79.3897H349.98L350.03 79.3397V79.3297ZM323.68 133.07C327.97 129.5 329.42 124.49 329.42 118.76C329.42 113.03 327.25 108.01 323.68 104.45C319.39 100.88 314.38 98.7097 307.92 98.7097C301.46 98.7097 296.45 100.88 292.16 104.45C287.87 108.02 285.7 113.03 285.7 118.76C285.7 124.49 287.87 129.51 292.16 133.07C296.45 136.64 301.46 138.81 307.92 138.81C314.38 138.09 319.39 136.64 323.68 133.07Z" fill="white"></path><path d="M376.7 64.2393C373.86 61.3993 372.41 58.4993 372.41 54.9393C372.41 51.3793 373.86 47.7593 376.7 45.6393C379.54 42.7993 383.16 42.0693 387.45 42.0693C389.93 42.0693 392.15 42.5393 394.17 43.3593C400.37 45.8893 403.88 52.9693 401.87 59.3293C401.2 61.4493 399.96 63.2093 398.2 64.9593C395.36 67.7993 391.74 68.5293 387.45 68.5293C383.16 67.8093 379.6 66.3593 376.7 64.2393ZM378.25 79.2793H395.87C397.52 79.2793 398.87 80.6193 398.87 82.2793V158.709C398.87 160.359 397.53 161.709 395.87 161.709H378.25C376.6 161.709 375.25 160.369 375.25 158.709V82.3393C375.25 80.6893 376.59 79.3393 378.25 79.3393V79.2893V79.2793Z" fill="white"></path><path d="M445.42 122.479V158.759C445.42 160.409 444.08 161.759 442.42 161.759H424.8C423.15 161.759 421.8 160.419 421.8 158.759V51.4893C421.8 49.8393 423.14 48.4893 424.8 48.4893H442.42C444.07 48.4893 445.42 49.8293 445.42 51.4893V106.059C445.42 108.699 448.57 110.039 450.48 108.229L479.62 80.8392C480.19 80.3192 480.91 80.0092 481.69 80.0092H502C504.69 80.0092 506.03 83.2093 504.17 85.1293L476.63 113.239C475.6 114.329 475.49 116.029 476.42 117.219L508.2 157.579C509.75 159.539 508.36 162.439 505.82 162.439H484.84C483.91 162.439 483.03 162.029 482.46 161.299L450.78 120.629C449.02 118.359 445.41 119.599 445.41 122.489L445.42 122.479Z" fill="white"></path><path d="M583.65 87.1902C590.83 92.9302 593.67 102.23 593.67 114.42V158.7C593.67 160.35 592.33 161.7 590.67 161.7H574.5C572.85 161.7 571.5 160.36 571.5 158.7V151.67C567.21 159.58 558.58 163.14 546.44 163.14C539.98 163.14 534.97 162.42 529.96 160.3C525.77 158.18 522.26 155.44 519.42 151.98C519.26 151.77 519.11 151.62 519.01 151.41C516.94 147.9 515.6 143.71 515.6 138.8C515.6 130.89 518.44 125.16 524.18 120.87C529.92 116.58 538.49 114.41 550.69 114.41H566.76C568.57 114.41 570.02 112.76 569.76 111C569.19 107.43 567.74 104.44 565.01 102.27C562.17 99.4302 557.16 97.9802 550.7 97.9802C546.41 97.9802 542.12 98.7002 537.78 100.15C534.58 101.24 531.73 102.68 529.31 104.28C527.97 105.16 526.21 104.75 525.23 103.45L518.56 94.4102C517.63 93.1702 517.78 91.4102 518.92 90.4302C523.57 86.4002 529.15 83.5102 534.16 82.2102C540.62 80.7602 547.08 79.3702 553.49 79.3702C566.36 78.6502 576.38 81.5402 583.56 87.2802L583.66 87.1802L583.65 87.1902ZM563.14 144.34C565.78 142.32 568.36 139.64 569.19 136.38C569.24 136.07 569.29 135.81 569.29 135.5V130.33C569.29 128.68 567.95 127.33 566.29 127.33H553.53C543.51 127.33 538.49 130.17 538.49 136.63C538.49 139.47 539.94 142.37 542.06 143.81C544.23 145.26 547.8 146.65 552.08 146.65C556.21 147.32 559.68 146.03 562.52 144.63C562.73 144.53 562.93 144.42 563.09 144.27L563.14 144.32V144.34Z" fill="white"></path></svg> 